<?xml version="1.0" encoding="UTF-8"?>
<svg width="630px" height="630px" viewBox="0 0 630 630" version="1.1" xmlns="http://www.w3.org/2000/svg" xmlns:xlink="http://www.w3.org/1999/xlink">
    <title>PBI Logo</title>
    <desc>Created with Sketch.</desc>
    <defs>
        <!-- Definizione del gradiente da smeraldo a azzurro -->
        <linearGradient id="gradient-fill" x1="0%" y1="0%" x2="100%" y2="0%">
            <stop offset="0%" style="stop-color:#6EE7B7; stop-opacity:1" /> <!-- emerald-300 -->
            <stop offset="100%" style="stop-color:#38BDF8; stop-opacity:1" /> <!-- sky-400 -->
        </linearGradient>
        <path d="M346,604 L346,630 L320,630 L153,630 C138.640597,630 127,618.359403 127,604 L127,183 C127,168.640597 138.640597,157 153,157 L320,157 C334.359403,157 346,168.640597 346,183 L346,604 Z" id="path-3"></path>
    </defs>
    <g id="PBI-Logo" stroke="black" stroke-width="2" fill="black" fill-rule="evenodd">
        <g id="Group" transform="translate(77.500000, 0.000000)">
            <rect id="Rectangle" fill="url(#gradient-fill)" x="256" y="0" width="219" height="630" rx="26"></rect>
            <g id="Combined-Shape">
                <use fill="url(#gradient-fill)" xlink:href="#path-3"></use>
            </g>
            <path d="M219,604 L219,630 L193,630 L26,630 C11.6405965,630 1.75851975e-15,618.359403 0,604 L0,341 C-1.75851975e-15,326.640597 11.6405965,315 26,315 L193,315 C207.359403,315 219,326.640597 219,341 L219,604 Z" id="Combined-Shape" fill="url(#gradient-fill)"></path>
        </g>
    </g>
</svg>

